<?xml version="1.0" encoding="utf-8"?>
<!-- Generator: Adobe Illustrator 17.0.0, SVG Export Plug-In . SVG Version: 6.00 Build 0)  -->
<!DOCTYPE svg PUBLIC "-//W3C//DTD SVG 1.1//EN" "http://www.w3.org/Graphics/SVG/1.1/DTD/svg11.dtd">
<svg version="1.1" id="Layer_1" xmlns="http://www.w3.org/2000/svg" xmlns:xlink="http://www.w3.org/1999/xlink" x="0px" y="0px"
	 width="76px" height="68px" viewBox="-12.5 -5.5 76 68" enable-background="new -12.5 -5.5 76 68" xml:space="preserve">
<path fill="#F49F21" d="M-10.251,47.376c0,0-0.191-28.456,23.491-28.456S32.91,49.095,41.123,49.095s7.257-21.581,7.257-21.581
	s9.358,32.467-1.337,32.467s-51.374,0-51.374,0s-5.73,0.191-5.92-2.101c-0.191-2.292,3.056-3.247,4.393-3.247
	s12.796-0.382,13.56-4.584S-10.251,47.376-10.251,47.376z"/>
<path fill="none" stroke="#4F4D65" stroke-width="3" stroke-miterlimit="10" d="M12.349,3.504"/>
<path fill="none" stroke="#4F4D65" stroke-width="4" stroke-linecap="round" stroke-miterlimit="10" d="M-0.738,37.196
	c0,0,4.264-9.412,7.897,0"/>
<path fill="none" stroke="#F39F21" stroke-width="3" stroke-miterlimit="10" d="M14.767,13.572c0,0,3.923-2.396,8.594-1.337
	c5.897,1.337,7.066-6.302,4.966-9.931S15.34-3.425,14.767,13.572z"/>
<path fill="none" stroke="#F39F21" stroke-width="3" stroke-miterlimit="10" d="M9.349,7.65c0,0-2.788-1.51-5.967-0.614
	c-4.014,1.131-5.092-4.088-3.775-6.663S8.347-4.037,9.349,7.65z"/>
<g>
	<path fill="none" stroke="#F39F21" stroke-width="3" stroke-miterlimit="10" d="M48.571,33.06v-6.875c0,0,9.196-5.175,10.504-7.066
		C60.66,16.827,60.221,35.161,48.571,33.06z"/>
	<path fill="none" stroke="#F39F21" stroke-width="3" stroke-miterlimit="10" d="M48.571,33.06v-6.875c0,0-9.196-5.175-10.504-7.066
		C36.482,16.827,36.921,35.161,48.571,33.06z"/>
</g>
</svg>
