<?xml version="1.0" encoding="utf-8"?>
<!-- Generator: Adobe Illustrator 17.0.0, SVG Export Plug-In . SVG Version: 6.00 Build 0)  -->
<!DOCTYPE svg PUBLIC "-//W3C//DTD SVG 1.1//EN" "http://www.w3.org/Graphics/SVG/1.1/DTD/svg11.dtd">
<svg version="1.1" id="Livello_1" xmlns="http://www.w3.org/2000/svg" xmlns:xlink="http://www.w3.org/1999/xlink" x="0px" y="0px"
	 viewBox="42.366 36.366 72 72" enable-background="new 42.366 36.366 72 72" xml:space="preserve">
<g>
	<path fill="#40AA8C" d="M103.378,37.552H67.855l-10.488,9.651l-4.771,4.545v52.578c0,1.329,1.281,2.406,2.861,2.406h47.921
		c1.58,0,2.861-1.077,2.861-2.406V39.959C106.239,38.63,104.958,37.552,103.378,37.552z"/>
	<path fill="#4F4D65" d="M99.991,58.517c0,1.269-1.029,2.298-2.298,2.298H86.778c-1.269,0-2.298-1.029-2.298-2.298V44.979
		c0-1.269,1.029-2.298,2.298-2.298h10.915c1.269,0,2.298,1.029,2.298,2.298V58.517z"/>
	<line fill="none" stroke="#4F4D65" stroke-width="3" stroke-miterlimit="10" x1="60.782" y1="73.741" x2="99.991" y2="73.741"/>
	<line fill="none" stroke="#4F4D65" stroke-width="3" stroke-miterlimit="10" x1="60.782" y1="81.64" x2="99.991" y2="81.64"/>
	<line fill="none" stroke="#4F4D65" stroke-width="3" stroke-miterlimit="10" x1="60.782" y1="89.539" x2="99.991" y2="89.539"/>
	<line fill="none" stroke="#4F4D65" stroke-width="3" stroke-miterlimit="10" x1="60.782" y1="97.438" x2="99.991" y2="97.438"/>
	<polygon fill="#4F4D65" points="67.855,44.65 67.855,37.552 63.084,42.097 52.596,51.748 62.162,51.748 67.855,51.748 	"/>
</g>
</svg>
