<?xml version="1.0" encoding="utf-8"?>
<!-- Generator: Adobe Illustrator 17.0.0, SVG Export Plug-In . SVG Version: 6.00 Build 0)  -->
<!DOCTYPE svg PUBLIC "-//W3C//DTD SVG 1.1//EN" "http://www.w3.org/Graphics/SVG/1.1/DTD/svg11.dtd">
<svg version="1.1" id="Livello_1" xmlns="http://www.w3.org/2000/svg" xmlns:xlink="http://www.w3.org/1999/xlink" x="0px" y="0px"
	 viewBox="42.366 36.366 72 72" enable-background="new 42.366 36.366 72 72" xml:space="preserve">
<g>
	<circle fill="#40AA8C" cx="78.096" cy="71.267" r="30"/>
	<g>
		<path fill="#4F4D65" d="M74.393,81.531v-2.74c0-2.677,0.733-4.078,2.447-6.019l5.472-6.151c2.854-3.208,3.833-4.746,3.833-7.02
			c0-3.81-3.264-6.216-7.919-6.216c-4.571,0-7.509,2.272-8.488,6.351c-0.082,0.401-0.407,0.602-0.899,0.535l-5.142-0.736
			c-0.492-0.067-0.735-0.334-0.656-0.736c1.227-6.418,6.86-10.63,15.351-10.63c8.813,0,14.772,4.746,14.772,11.365
			c0,3.21-1.384,5.549-4.161,8.692l-5.47,6.151c-1.632,1.804-2.124,2.74-2.124,5.012v2.138c0,0.401-0.325,0.667-0.815,0.667h-5.388
			C74.719,82.201,74.393,81.932,74.393,81.531z M73.986,87.951c0-0.401,0.325-0.667,0.817-0.667h6.205
			c0.489,0,0.815,0.268,0.815,0.667v5.749c0,0.403-0.328,0.667-0.815,0.667h-6.205c-0.494,0-0.817-0.267-0.817-0.667V87.951z"/>
	</g>
</g>
</svg>
